<svg width="200" height="48" viewBox="0 0 200 48" fill="none" xmlns="http://www.w3.org/2000/svg">
<g clip-path="url(#clip0_1_3)">
<mask id="mask0_1_3" style="mask-type:luminance" maskUnits="userSpaceOnUse" x="0" y="0" width="51" height="33">
<path d="M0 0H50.5726V32.6513H0V0Z" fill="white"/>
</mask>
<g mask="url(#mask0_1_3)">
<path d="M16.9305 28.2002L20.5398 14.2511C20.7302 13.5093 21.424 12.921 22.1828 13.0251C22.9522 13.0537 23.5989 13.6134 23.7372 14.3682L27.0624 32.6149L28.9086 29.0801C29.1902 28.536 29.7535 28.1977 30.3639 28.1977H43.4896L46.9345 24.3869C47.0519 24.2515 47.1483 24.1007 47.2188 23.9418C49.0599 20.8131 50.4603 18.1009 50.4603 14.514C50.4603 6.78328 44.058 0.252497 36.4794 0.252497C31.9261 0.252497 27.8419 2.30101 25.2628 5.74471C22.6497 2.1995 18.4927 0.0208359 14.0357 0.0208359C6.4598 0.0208359 0.057373 6.67394 0.057373 14.5531C0.057373 18.1087 1.39001 20.7012 3.28596 23.921C3.35637 24.0901 3.45547 24.2463 3.58066 24.3869L7.03091 28.1977L16.9305 28.2002Z" fill="#FF3131"/>
</g>
<mask id="mask1_1_3" style="mask-type:luminance" maskUnits="userSpaceOnUse" x="9" y="21" width="33" height="27">
<path d="M9.68054 21.9896H41.059V47.3995H9.68054V21.9896Z" fill="white"/>
</mask>
<g mask="url(#mask1_1_3)">
<path d="M31.3601 31.4722L27.7664 38.3595C27.4796 38.906 26.9161 39.2418 26.3111 39.2418C26.2277 39.2418 26.1442 39.2316 26.066 39.2185C25.3723 39.1143 24.822 38.5809 24.6995 37.8937L21.8517 22.2734L19.7888 30.2384C19.6037 30.9593 18.949 31.4645 18.2032 31.4645H9.99351L24.0685 47.0065C24.3814 47.3475 24.822 47.5426 25.2862 47.5426C25.7506 47.5426 26.1964 47.3475 26.5041 47.0038L40.5399 31.4645L31.3601 31.4722Z" fill="#FF3131"/>
</g>
<path d="M66.5444 26.1518L68.9748 9.5971H71.9166L68.7766 29.8897H64.0095L60.8798 9.5971H64.1034L66.5444 26.1518Z" fill="#003366"/>
<path d="M76.3293 25.2251C76.3293 25.9617 76.4778 26.4797 76.7778 26.7765C77.0748 27.0758 77.4764 27.2241 77.9771 27.2241C78.4832 27.2241 78.8878 27.0758 79.1878 26.7765C79.4848 26.4797 79.6358 25.9617 79.6358 25.2251V14.2616C79.6358 13.5327 79.4848 13.02 79.1878 12.7206C78.8878 12.4161 78.4832 12.2625 77.9771 12.2625C77.4764 12.2625 77.0748 12.4161 76.7778 12.7206C76.4778 13.02 76.3293 13.5327 76.3293 14.2616V25.2251ZM73.1268 14.4698C73.1268 12.8248 73.544 11.5649 74.3785 10.6904C75.2129 9.81052 76.4129 9.36808 77.9771 9.36808C79.5474 9.36808 80.7474 9.81052 81.5764 10.6904C82.4107 11.5649 82.8283 12.8248 82.8283 14.4698V25.0168C82.8283 26.662 82.4107 27.9269 81.5764 28.8068C80.7474 29.6814 79.5474 30.1186 77.9771 30.1186C76.4129 30.1186 75.2129 29.6814 74.3785 28.8068C73.544 27.9269 73.1268 26.662 73.1268 25.0168V14.4698Z" fill="#003366"/>
<path d="M94.1497 22.3203V25.0168C94.1497 26.662 93.7451 27.9269 92.9397 28.8068C92.139 29.6814 90.9571 30.1186 89.3923 30.1186C87.82 30.1186 86.6306 29.6814 85.8252 28.8068C85.0245 27.9269 84.6252 26.662 84.6252 25.0168V14.4698C84.6252 12.8248 85.0245 11.5649 85.8252 10.6904C86.6306 9.81052 87.82 9.36808 89.3923 9.36808C90.9571 9.36808 92.139 9.81052 92.9397 10.6904C93.7451 11.5649 94.1497 12.8248 94.1497 14.4698V16.4376H91.1342V14.2616C91.1342 13.5327 90.9832 13.02 90.6862 12.7206C90.3862 12.4161 89.9816 12.2625 89.4764 12.2625C88.9755 12.2625 88.5742 12.4161 88.2764 12.7206C87.9764 13.02 87.8283 13.5327 87.8283 14.2616V25.2251C87.8283 25.9617 87.9764 26.4745 88.2764 26.7661C88.5742 27.0525 88.9755 27.1929 89.4764 27.1929C89.9816 27.1929 90.3862 27.0525 90.6862 26.7661C90.9832 26.4745 91.1342 25.9617 91.1342 25.2251V22.3203H94.1497Z" fill="#003366"/>
<path d="M99.297 18.1451H103.679V21.0501H99.297V26.995H104.815V29.8895H96.0946V9.5971H104.815V12.502H99.297V18.1451ZM96.1887 8.61845L98.89 5.22417H101.937L104.638 8.61845H101.759L100.392 6.9317L99.0571 8.61845H96.1887Z" fill="#003366"/>
<path d="M110.874 14.4698C110.874 12.8248 111.266 11.5649 112.053 10.6904C112.838 9.81052 114.014 9.36808 115.579 9.36808C117.149 9.36808 118.325 9.81052 119.105 10.6904C119.89 11.5649 120.283 12.8248 120.283 14.4698V15.2507H117.269V14.2616C117.269 13.5327 117.125 13.02 116.841 12.7206C116.562 12.4161 116.173 12.2625 115.673 12.2625C115.164 12.2625 114.77 12.4161 114.494 12.7206C114.215 13.02 114.076 13.5327 114.076 14.2616C114.076 14.9643 114.228 15.5813 114.536 16.1149C114.849 16.6433 115.234 17.143 115.694 17.6142C116.158 18.0879 116.656 18.5616 117.185 19.0406C117.72 19.5143 118.221 20.0297 118.688 20.5919C119.152 21.149 119.537 21.7841 119.845 22.4973C120.158 23.2132 120.315 24.0539 120.315 25.0168C120.315 26.662 119.911 27.9269 119.105 28.8068C118.304 29.6814 117.123 30.1186 115.558 30.1186C113.985 30.1186 112.796 29.6814 111.99 28.8068C111.19 27.9269 110.791 26.662 110.791 25.0168V23.6321H113.816V25.2251C113.816 25.9617 113.965 26.4745 114.264 26.7661C114.562 27.0525 114.963 27.1929 115.464 27.1929C115.97 27.1929 116.374 27.0525 116.674 26.7661C116.972 26.4745 117.123 25.9617 117.123 25.2251C117.123 24.5328 116.966 23.9185 116.654 23.3823C116.346 22.8487 115.96 22.3463 115.495 21.8725C115.028 21.4015 114.528 20.9303 113.993 20.4565C113.464 19.9855 112.966 19.4674 112.502 18.9052C112.034 18.343 111.646 17.7053 111.333 16.9895C111.025 16.2763 110.874 15.4355 110.874 14.4698Z" fill="#003366"/>
<path d="M132.479 29.8897H129.255L128.713 26.2039H124.791L124.237 29.8897H121.306L124.55 9.5971H129.234L132.479 29.8897ZM125.198 23.4552H128.275L126.731 13.1892L125.198 23.4552Z" fill="#003366"/>
<path d="M137.015 9.5971V25.2564C137.015 25.9852 137.164 26.4953 137.464 26.7869C137.762 27.0786 138.163 27.2241 138.664 27.2241C139.169 27.2241 139.574 27.0786 139.874 26.7869C140.171 26.4953 140.322 25.9852 140.322 25.2564V9.5971H143.347V25.0481C143.347 26.6932 142.944 27.9582 142.137 28.838C141.337 29.7127 140.15 30.1499 138.58 30.1499C137.015 30.1499 135.829 29.7127 135.023 28.838C134.215 27.9582 133.813 26.6932 133.813 25.0481V9.5971H137.015Z" fill="#003366"/>
<path d="M145.516 9.5971H150.576C152.182 9.5971 153.373 10.024 154.154 10.8778C154.938 11.7263 155.332 12.9705 155.332 14.6156V24.8712C155.332 26.5164 154.938 27.7657 154.154 28.6193C153.373 29.4679 152.182 29.8897 150.576 29.8897H145.516V9.5971ZM148.718 12.502V26.9952H150.513C151.018 26.9952 151.415 26.8494 151.702 26.5578C151.994 26.2664 152.14 25.7536 152.14 25.0168V14.4698C152.14 13.7358 151.994 13.2256 151.702 12.9393C151.415 12.6478 151.018 12.502 150.513 12.502H148.718Z" fill="#003366"/>
<path d="M167.701 29.8895H164.478L163.935 26.2039H160.013L159.46 29.8895H156.528L159.773 9.5971H164.456L167.701 29.8895ZM160.42 23.4552H163.497L161.953 13.1892L160.42 23.4552ZM165.959 5.22417L162.829 8.61845H160.566L162.652 5.22417H165.959Z" fill="#003366"/>
<path d="M174.011 26.1518L176.442 9.5971H179.383L176.244 29.8897H171.476L168.346 9.5971H171.57L174.011 26.1518Z" fill="#003366"/>
<path d="M184.056 18.1451H188.438V21.0501H184.056V26.9952H189.575V29.8897H180.854V9.5971H189.575V12.502H184.056V18.1451Z" fill="#003366"/>
<path d="M191.54 9.5971H194.743V26.9952H200V29.8897H191.54V9.5971Z" fill="#003366"/>
</g>
<defs>
<clipPath id="clip0_1_3">
<rect width="200" height="48" fill="white"/>
</clipPath>
</defs>
</svg>
